<?xml version="1.0" encoding="iso-8859-1"?>
<!-- Generator: Adobe Illustrator 19.0.0, SVG Export Plug-In . SVG Version: 6.00 Build 0)  -->
<svg version="1.1" id="Layer_1" xmlns="http://www.w3.org/2000/svg" xmlns:xlink="http://www.w3.org/1999/xlink" x="0px" y="0px"
	 viewBox="0 0 512 512" style="enable-background:new 0 0 512 512;" xml:space="preserve">
<g transform="translate(1 1)">
	<polygon style="fill:#FFFFFF;" points="361.667,57.453 476.867,172.653 472.6,176.92 502.467,176.92 502.467,57.453 	"/>
	<path style="fill:#0096E6;" d="M511,185.453h-58.88l12.8-12.8L341.187,48.92H511V185.453z M484.547,168.387h9.387v-102.4H382.147
		L484.547,168.387z"/>
	<path style="fill:#FFFFFF;" d="M214.04,57.453H67.267c-33.28,0-59.733,26.453-59.733,59.733s26.453,59.733,59.733,59.733h35.84
		l-4.267-4.267L214.04,57.453L214.04,57.453z"/>
	<path style="fill:#0096E6;" d="M123.587,185.453h-56.32C29.72,185.453-1,154.733-1,117.187S29.72,48.92,67.267,48.92H234.52
		L110.787,172.653L123.587,185.453z M67.267,65.987c-28.16,0-51.2,23.04-51.2,51.2s23.04,51.2,51.2,51.2H91.16l102.4-102.4H67.267z"
		/>
	<path style="fill:#FFFFFF;" d="M7.533,117.187V448.28c0,29.013,23.893,52.907,52.907,52.907h442.027V176.92h-435.2
		C33.987,176.92,7.533,150.467,7.533,117.187L7.533,117.187z"/>
	<g>
		<path style="fill:#0096E6;" d="M511,509.72H60.44C26.307,509.72-1,482.413-1,448.28V117.187h17.067c0,28.16,23.04,51.2,51.2,51.2
			H511V509.72z M16.067,162.413v286.72c0,23.893,19.627,43.52,44.373,43.52h433.493v-307.2H67.267
			C46.787,185.453,28.867,176.067,16.067,162.413z"/>
		<path style="fill:#0096E6;" d="M502.467,475.587h-25.6c-5.12,0-8.533-3.413-8.533-8.533c0-5.12,3.413-8.533,8.533-8.533h25.6
			c5.12,0,8.533,3.413,8.533,8.533C511,472.173,507.587,475.587,502.467,475.587z M451.267,475.587h-25.6
			c-5.12,0-8.533-3.413-8.533-8.533c0-5.12,3.413-8.533,8.533-8.533h25.6c5.12,0,8.533,3.413,8.533,8.533
			C459.8,472.173,456.387,475.587,451.267,475.587z M400.067,475.587h-25.6c-5.12,0-8.533-3.413-8.533-8.533
			c0-5.12,3.413-8.533,8.533-8.533h25.6c5.12,0,8.533,3.413,8.533,8.533C408.6,472.173,405.187,475.587,400.067,475.587z
			 M348.867,475.587h-25.6c-5.12,0-8.533-3.413-8.533-8.533c0-5.12,3.413-8.533,8.533-8.533h25.6c5.12,0,8.533,3.413,8.533,8.533
			C357.4,472.173,353.987,475.587,348.867,475.587z M297.667,475.587h-25.6c-5.12,0-8.533-3.413-8.533-8.533
			c0-5.12,3.413-8.533,8.533-8.533h25.6c5.12,0,8.533,3.413,8.533,8.533C306.2,472.173,302.787,475.587,297.667,475.587z
			 M246.467,475.587h-25.6c-5.12,0-8.533-3.413-8.533-8.533c0-5.12,3.413-8.533,8.533-8.533h25.6c5.12,0,8.533,3.413,8.533,8.533
			C255,472.173,251.587,475.587,246.467,475.587z M195.267,475.587h-25.6c-5.12,0-8.533-3.413-8.533-8.533
			c0-5.12,3.413-8.533,8.533-8.533h25.6c5.12,0,8.533,3.413,8.533,8.533C203.8,472.173,200.387,475.587,195.267,475.587z
			 M144.067,475.587h-25.6c-5.12,0-8.533-3.413-8.533-8.533c0-5.12,3.413-8.533,8.533-8.533h25.6c5.12,0,8.533,3.413,8.533,8.533
			C152.6,472.173,149.187,475.587,144.067,475.587z M92.867,475.587h-25.6c-5.12,0-8.533-3.413-8.533-8.533
			c0-5.12,3.413-8.533,8.533-8.533h25.6c5.12,0,8.533,3.413,8.533,8.533C101.4,472.173,97.987,475.587,92.867,475.587z
			 M42.52,470.467c-0.853,0-2.56,0-3.413-0.853c-8.533-4.267-17.067-10.24-23.04-17.067c-3.413-3.413-2.56-8.533,0.853-11.947
			s8.533-2.56,11.947,0.853c5.12,5.12,11.093,10.24,17.067,12.8c4.267,1.707,5.973,6.827,4.267,11.093
			C48.493,468.76,45.933,470.467,42.52,470.467z M10.093,432.92c-3.413,0-6.827-2.56-8.533-5.973C-0.147,420.12-1,414.147-1,407.32
			c0-5.12,3.413-8.533,8.533-8.533s8.533,3.413,8.533,8.533c0,5.12,0.853,9.387,1.707,14.507c1.707,4.267-0.853,9.387-5.973,10.24
			C11.8,432.92,10.947,432.92,10.093,432.92z M502.467,219.587h-25.6c-5.12,0-8.533-3.413-8.533-8.533s3.413-8.533,8.533-8.533h25.6
			c5.12,0,8.533,3.413,8.533,8.533S507.587,219.587,502.467,219.587z M451.267,219.587h-25.6c-5.12,0-8.533-3.413-8.533-8.533
			s3.413-8.533,8.533-8.533h25.6c5.12,0,8.533,3.413,8.533,8.533S456.387,219.587,451.267,219.587z M400.067,219.587h-25.6
			c-5.12,0-8.533-3.413-8.533-8.533s3.413-8.533,8.533-8.533h25.6c5.12,0,8.533,3.413,8.533,8.533S405.187,219.587,400.067,219.587z
			 M348.867,219.587h-25.6c-5.12,0-8.533-3.413-8.533-8.533s3.413-8.533,8.533-8.533h25.6c5.12,0,8.533,3.413,8.533,8.533
			S353.987,219.587,348.867,219.587z M297.667,219.587h-25.6c-5.12,0-8.533-3.413-8.533-8.533s3.413-8.533,8.533-8.533h25.6
			c5.12,0,8.533,3.413,8.533,8.533S302.787,219.587,297.667,219.587z M246.467,219.587h-25.6c-5.12,0-8.533-3.413-8.533-8.533
			s3.413-8.533,8.533-8.533h25.6c5.12,0,8.533,3.413,8.533,8.533S251.587,219.587,246.467,219.587z M195.267,219.587h-25.6
			c-5.12,0-8.533-3.413-8.533-8.533s3.413-8.533,8.533-8.533h25.6c5.12,0,8.533,3.413,8.533,8.533S200.387,219.587,195.267,219.587z
			 M144.067,219.587h-25.6c-5.12,0-8.533-3.413-8.533-8.533s3.413-8.533,8.533-8.533h25.6c5.12,0,8.533,3.413,8.533,8.533
			S149.187,219.587,144.067,219.587z M92.867,219.587h-25.6c-5.12,0-8.533-3.413-8.533-8.533s3.413-8.533,8.533-8.533h25.6
			c5.12,0,8.533,3.413,8.533,8.533S97.987,219.587,92.867,219.587z M42.52,214.467c-0.853,0-2.56,0-3.413-0.853
			c-8.533-4.267-17.067-10.24-23.04-17.067c-3.413-3.413-2.56-8.533,0.853-11.947s8.533-2.56,11.947,0.853
			c5.12,5.12,11.093,10.24,17.067,12.8c4.267,1.707,5.973,6.827,4.267,11.093C48.493,212.76,45.933,214.467,42.52,214.467z
			 M10.093,176.92c-3.413,0-6.827-2.56-8.533-5.973C-0.147,164.12-1,158.147-1,151.32c0-10.24,1.707-19.627,5.973-28.16
			c2.56-4.267,6.827-6.827,11.093-4.267c4.267,1.707,5.973,6.827,4.267,11.093c-2.56,6.827-4.267,13.653-4.267,21.333
			c0,5.12,0.853,9.387,1.707,14.507c1.707,4.267-0.853,9.387-5.973,10.24C11.8,176.92,10.947,176.92,10.093,176.92z M28.013,114.627
			c-2.56,0-5.12-0.853-6.827-2.56c-3.413-3.413-2.56-8.533,0.853-11.947c7.68-6.827,16.213-11.093,25.6-13.653
			c5.12-1.707,9.387,0.853,11.093,5.12c1.707,4.267-0.853,9.387-5.973,10.24c-6.827,1.707-13.653,5.973-18.773,10.24
			C32.28,113.773,29.72,114.627,28.013,114.627z M152.6,100.12H127c-5.12,0-8.533-3.413-8.533-8.533s3.413-8.533,8.533-8.533h25.6
			c5.12,0,8.533,3.413,8.533,8.533S157.72,100.12,152.6,100.12z M101.4,100.12H75.8c-5.12,0-8.533-3.413-8.533-8.533
			s3.413-8.533,8.533-8.533h25.6c5.12,0,8.533,3.413,8.533,8.533S106.52,100.12,101.4,100.12z"/>
	</g>
	<path style="fill:#D0E8F9;" d="M502.467,381.72h-102.4c-28.16,0-51.2-23.04-51.2-51.2s23.04-51.2,51.2-51.2h102.4V381.72
		L502.467,381.72z"/>
	<path style="fill:#0096E6;" d="M511,390.253H400.067c-33.28,0-59.733-26.453-59.733-59.733s26.453-59.733,59.733-59.733H511
		V390.253z M400.067,287.853c-23.893,0-42.667,18.773-42.667,42.667s18.773,42.667,42.667,42.667h93.867v-85.333H400.067z"/>
	<path style="fill:#FFFFFF;" d="M434.2,330.52c0,14.507-11.093,25.6-25.6,25.6c-14.507,0-25.6-11.093-25.6-25.6
		s11.093-25.6,25.6-25.6C423.107,304.92,434.2,316.013,434.2,330.52L434.2,330.52z"/>
	<path style="fill:#0096E6;" d="M408.6,364.653c-18.773,0-34.133-15.36-34.133-34.133s15.36-34.133,34.133-34.133
		c18.773,0,34.133,15.36,34.133,34.133S427.373,364.653,408.6,364.653z M408.6,313.453c-9.387,0-17.067,7.68-17.067,17.067
		s7.68,17.067,17.067,17.067c9.387,0,17.067-7.68,17.067-17.067S417.987,313.453,408.6,313.453z"/>
	<path style="fill:#FFFFFF;" d="M472.6,176.92l4.267-4.267L313.027,8.813c-0.853-0.853-0.853-0.853-1.707,0l-163.84,163.84
		l4.267,4.267H472.6L472.6,176.92z"/>
	<path style="fill:#0096E6;" d="M476.013,185.453h-327.68l-12.8-12.8L305.347,2.84c3.413-3.413,10.24-3.413,13.653,0
		l169.813,169.813L476.013,185.453z M163.693,168.387h296.96l-148.48-148.48L163.693,168.387z M307.053,14.787L307.053,14.787
		L307.053,14.787z"/>
	<path style="fill:#D0E8F9;" d="M151.747,176.92l-4.267-4.267l140.8-140.8L264.387,7.96c-0.853-0.853-0.853-0.853-1.707,0
		L98.84,172.653l4.267,4.267H151.747L151.747,176.92z"/>
	<g>
		<path style="fill:#0096E6;" d="M173.08,185.453h-72.533l-12.8-12.8L256.707,2.84c3.413-3.413,10.24-3.413,13.653,0l29.867,29.013
			l-140.8,140.8L173.08,185.453z M115.053,168.387H139.8L276.333,31.853l-12.8-11.947L115.053,168.387z M258.413,14.787
			L258.413,14.787L258.413,14.787z M268.653,14.787L268.653,14.787L268.653,14.787z"/>
		<path style="fill:#0096E6;" d="M502.467,100.12c-5.12,0-8.533-3.413-8.533-8.533s3.413-8.533,8.533-8.533l0,0
			c5.12,0,8.533,3.413,8.533,8.533S507.587,100.12,502.467,100.12z M476.867,100.12h-25.6c-5.12,0-8.533-3.413-8.533-8.533
			s3.413-8.533,8.533-8.533h25.6c5.12,0,8.533,3.413,8.533,8.533S481.987,100.12,476.867,100.12z M425.667,100.12h-25.6
			c-5.12,0-8.533-3.413-8.533-8.533s3.413-8.533,8.533-8.533h25.6c5.12,0,8.533,3.413,8.533,8.533S430.787,100.12,425.667,100.12z"
			/>
	</g>
	<path style="fill:#D0E8F9;" d="M406.04,176.92l2.56-2.56l-95.573-96.427h-0.853l-96.427,96.427l2.56,2.56H406.04L406.04,176.92z"/>
	<path style="fill:#0096E6;" d="M409.453,185.453h-194.56L203.8,174.36L307.907,70.253h4.267c2.56,0,5.12,0.853,6.827,2.56
		L420.547,174.36L409.453,185.453z M233.667,168.387H390.68L312.173,89.88L233.667,168.387z M318.147,83.907L318.147,83.907
		C317.293,84.76,318.147,84.76,318.147,83.907z"/>
</g>
<g>
</g>
<g>
</g>
<g>
</g>
<g>
</g>
<g>
</g>
<g>
</g>
<g>
</g>
<g>
</g>
<g>
</g>
<g>
</g>
<g>
</g>
<g>
</g>
<g>
</g>
<g>
</g>
<g>
</g>
</svg>
