<svg enable-background="new 0 0 652 652" height="316.227766" viewBox="0 0 652 652" width="316.227766" xmlns="http://www.w3.org/2000/svg" xmlns:xlink="http://www.w3.org/1999/xlink"><clipPath id="a"><path d="m44.6 341h576.4v36.4h-576.4z"/></clipPath><linearGradient id="b" gradientTransform="matrix(83.7414 0 0 -81.631 22700.2559 61700.5313)" gradientUnits="userSpaceOnUse" x1="-270.5428" x2="-263.6603" y1="751.4468" y2="751.4468"><stop offset="0" stop-color="#39569b"/><stop offset=".2269" stop-color="#39569b"/><stop offset=".3214" stop-color="#7b5278"/><stop offset=".477" stop-color="#f04c3b"/><stop offset=".6211" stop-color="#f47c53"/><stop offset=".6747" stop-color="#f47f57"/><stop offset=".7253" stop-color="#f58862"/><stop offset=".7748" stop-color="#f69675"/><stop offset=".8235" stop-color="#f8ab90"/><stop offset=".8718" stop-color="#fac5b3"/><stop offset=".9189" stop-color="#fde5dc"/><stop offset=".9525" stop-color="#fff"/><stop offset="1" stop-color="#fff"/></linearGradient><path d="m504.8 287.8 16.2 36.8.1-36.8h7.1v33.8h14.8v4.9h-28.4l-4.9-10.3h-8.1v-4.6h6.6l-6.6-14.4v-9.3h3.2zm-3.2 28.3h-8.3l-4.8 10.3h-13.3v-38.3h7.6v37.2l16.9-37.5h1.9v9.3l-.3-.8-6.2 15.2h6.5zm-183.2 10.5v-2.7l1.6 2.6zm0-6.5c3.1 5.6 10 7.3 15.5 7.4 6.9.1 13-3.4 15-6.1 3.4-4.9 2.3-21 2.3-29.1 11.4-.8 22.9 1 21.5 15.9-1.4 13.6-10.7 15.2-23.1 14.7-.8 1.5-2.2 2.7-4.2 3.6 29.9 2.3 31.7-6.9 34.9-14.2v14.2l31.1.2v-28l23.8 27.8h5.8v-34.2h13.1v34.2h7.7v-34.1h14.1v-4.2h-40.7v27.7l-23.8-27.7h-5.4v34.2h-19.3v-13.6h16.3v-4.1h-16.3l.1-12.5h17v-4.1h-24.1v12.9c-1-2.2-2.2-4.5-3.6-6.4-6.2-7.7-18-6.2-31.7-6.2v19.2c0 6.5-.6 15.4-10.4 15.5-8.5.1-10.2-5-10.5-13.5.1-5.7-.2-15-.2-21.2h-4.9zm0-31.6v31.6c-1.2-2-1.7-4.4-1.7-7.4v-24.3h1.7zm0 35.4-9.1-14.2c4.9-2.7 7.4-7.1 5.8-13.5-1.6-5.9-5.5-7.3-12.9-7.4h-.6v3.4h2.9c4.4 1.7 5 11.3 1.2 13.6-.9.7-2.4.9-4.1 1v4.5h.8l9.7 15.5 6.3-.3zm-16.7-35.1v3.4h-6.5v14.5c1.5 0 4.2.2 6.5.1v4.5h-6.5v15.5h-7.7l.1-38.1h14.1zm-29 23.4c1.7 0 3.5-.1 5-.4.6-.1 3.4-1.3 3.7-1.5 6.4-4 6.4-16 0-20-1.9-1.1-5.1-1.6-8.7-1.7v4h2.3c5.2.8 5.7 8.8 3.4 12.9-1 1.8-3.4 2.5-5.7 2.7zm0-23.6v4h-7.1v15.5c1.7.1 4.5.3 7.1.1v4c-1.4 0-2.8 0-4.1-.1h-3v14.9h-6.5v-38.1c3.8-.1 9-.4 13.6-.3" fill="#ed1d24"/><g fill="#757668"><path d="m566 300.9s.2.4 1.3 1.2 1.5.9 1.5.9-.3 1.2-.3 3.1c0 2 .8 5.7.8 5.6s-1.2-1.5-2.3-4.7c-1.2-3.6-1-6.1-1-6.1"/><path d="m559.4 310.5s.5-.7.7-1.6.2-1.6.2-1.6.9-.1 2.1-1.1 2-1.9 2-1.9-.3 2.2-1.7 3.9c-1.9 2.5-3.3 2.3-3.3 2.3"/><path d="m564.6 308.5c1 0 1 6.7 1 6.6s4.1 2.2 4.1 4.3c0 2.8-5.1 4.7-5.1 4.7s-.3 2.3-.8 4.5-1 5.1-1 5.1-.3-2.2-.3-4.4v-3.4s-2.7.9-2.7 2.9.7 1.4.7 2.5-.7 2.4-.7 2.4.3-2-1.5-3.1-1.3-3.1.1-3.9 4-1.8 4-1.8.1-1.9.1-4.4.1-3.7.1-3.7-4.8-.7-4.9-2.4c0-.4 1.3-.6 2.8-.6 1.1 0 2.4.3 2.4.3s1.1-5.6 1.7-5.6m.9 8.8s-.2 2-.4 3.5-.4 2.3-.4 2.3 2.9-.9 3-3.2c.2-2.1-2.2-2.6-2.2-2.6"/><path d="m578.6 296.5v3.6s.3-.9 4.6-2.3c4.3-1.5 7-1.6 7-1.6z"/><path d="m581.6 302.3v-2.2s1.8-.3 3.5-.3c3 0 4.9.6 4.9.6s-.9-.1-1.7-.1-1 .2-1 .2.5 1.4-.5 1.8-1.1.3-1.5.4-1 .1-1 .1l.6-.6s.2-.1-.2-.5-.2-1-.2-1-.4.3-1.4.7c-.8.5-1.5.9-1.5.9"/><path d="m586.3 316.5h2.9s1.5-1.7 2-1.7c.7 0 1 1.2 1.8 1.2.2 0 .8-.9 1.3-.9.8 0 .8 1.4 1.1 1.4h.8v.2h-2.5s-.2.5-.7.5-1.1-.6-1.1-.6h-5.6z"/><path d="m594.9 317.6s-.8 1.1-2.9 1.1c-1.8 0-2.6-.8-3.1-1.1-.1-.1-.3-.1-.5-.1s-.1.2.1.2.2.1.3.1c.1.2.2.4.5.8.7.9 2.1 1.5 2.7 1.5s1.3-.2 2.4-1.2c.8-.8.5-1.3.5-1.3"/><path d="m575.7 320.2s10 4.7 14.8 4.7c2.8 0 3-.5 3.9-1.6s6.3-8.5 7.3-13.6c1.1-5.1 1.4-6.5 1.4-6.5s.4 5.4-1.5 10.6c-1.8 5.3-6.1 10.8-7 11.7s-2.3 1.1-5.1.8-7.9-2.1-10.2-3.8c-2.4-1.7-3.6-2.3-3.6-2.3"/><path d="m601.3 337.3v-3.2c0-1.3.8-2.6 2-3.5s2.2-1 2.2-3.8c0-2.7-.1-2.4-.1-3.6s.9-2.4 2.1-2.4 2.5 1.6 2.5 1.6-2.4 0-2.8 3-.4 3.9-1.5 5.8c-1.1 1.8-2.1 2.6-2.9 3.7-.9 1.1-1.5 2.4-1.5 2.4"/><path d="m609.3 326.5 1.7 1.1s.1-.8 1-1.8 1.3-1.3 1.3-1.3-.6-.3-2.2.4c-1.5.8-1.8 1.6-1.8 1.6"/><path d="m607.1 332.1 2.2 1.5s.4-1.4 1.8-3c1.3-1.5 2.1-1.8 2.1-1.8s-1.6-.3-3.5.9c-2 1.3-2.6 2.4-2.6 2.4"/><path d="m621 299.6s.1-4.9-2.1-4.9c-1.6 0-4.2 2.3-7.7 13.6-2.1 6.9.1 10.9.1 10.9s.6-7.6 1.8-10.2c1.1-2.6 4.2-10.4 6.5-10.4 1 0 1.4 1 1.4 1"/><path d="m602 297.9s-5.8-.6-6.2 5.1c-.1 1.5.2 1.4.2 4v3.3c0 .6.3 1.5-1.4 1.5h-5.9c-.6 0-.9.3-.3.5.7.2 1 .3 1.5.5.5.3.9.4 1.4.1.4-.2.5-.4 1.4-.4s.8 0 1.1.3.4.3.9.3.8-.2 1.4-.9c.6-.6 1-2.3 1.1-5.2.2-2.9.3-5.4 1.4-7 1.3-1.4 3.4-2.1 3.4-2.1"/><path d="m601.8 301.2c0-.8-.6-1.4-1.4-1.4s-1.4.6-1.4 1.4c0 .4.2.8.6 1.1 0 .1-.1.1-.1.2-.3.3-.8.5-.8.5s.4.2 1-.1c.3-.1.6-.2.8-.3.1 0 .2 0 .3-.1.6-.1 1-.6 1-1.3"/><path d="m602.2 294.5v-3.5l-3-.6s1.6.6 2.3 1.9c.7 1 .7 2.2.7 2.2"/></g><path d="m603.8 288.9c0 .6-.2.9-.8 1.7s-.8 1.9-1.7 1.3-3.6-2.4-15.7-2.4c-7.9 0-12.5 1.5-14.1 1.5s-3.7-1-3.7-3.5.7-3 .9-3c.1 0 1.2 3.9 5.5 3.9s10.3-2.9 18.3-2.9c6.4.1 11.3 3.1 11.3 3.4" fill="#ed1d24"/><path d="m588.5 284.7s-.7-5.6-3.4-5.6c-.9 0-1.5.5-2.2.5-1.9 0-3.6-3.7-6.3-3.7-1.2 0-2 .4-2.7.4-1.1 0-1.9-1.3-1.9-1.3s0 3.9 4.6 3.9c1.1 0 2.3-.1 3.5.6 4.8 2.9 8.4 5.2 8.4 5.2" fill="#757668"/><path d="m586.5 274.4s-1 1.6 2.5 3.8 3.8 1.4 4.7 3.2c.9 1.7.9 2 .9 2s.8-1 .8-2.5c0-1.6-.9-2.6-3.2-3.3s-2.6-.7-3.5-1.3c-.4-.3-.7-.7-1.1-1.1-.5-.5-1.1-.8-1.1-.8" fill="#757668"/><path d="m598.1 279.3s.5 1.3 1 2.3 1.2 3 2.4 3c1.1 0 1.3-2 0-2.6-1.3-.7-1.6-.9-2.2-1.4-.7-.6-1.2-1.3-1.2-1.3" fill="#757668"/><path d="m569.2 293.1s-5.7-5.7-9.9-5.7c-4.8 0-5.2 2.8-10.7 2.8h-.1c-5.1 0-5.3-3-5.3-3s-1.3 1.4-1.8 2.9c-.6 1.7-.3 3.6 2.2 3.6 2.7 0 6.7-3.4 12.7-3.4h2.5s1.1 1.4 3 2 3.2.7 3.5.7.3.8-.1.8-2 .2-3.3.2-3.7-.5-6.2-.5-4.8.1-6.4 1-1.7 1.5-1.8 2.5.3 3 .3 3 1.7-2.8 5.2-2.8c2.5 0 3.8.8 5.6.8 6.9 0 10.6-4.9 10.6-4.9" fill="#ee322d"/><path clip-path="url(#a)" d="m44.6 341h576.4v36.4h-576.4z" fill="url(#b)"/><path d="m75.4 326.5 11-39.9h13.9l-10.9 39.9z" fill="#005b76"/><path d="m147.2 326.5 11-39.9h13.9l-10.9 39.9z" fill="#005b76"/><path d="m219 326.5 11-39.9h13.9l-10.9 39.9z" fill="#005b76"/><path clip-rule="evenodd" d="m134.2 300.3h14c1.9-9-4.1-13.6-17.8-13.6-15.9 0-26.6 7.6-30.3 20.7-3.3 11.9 3.2 19.2 18.1 19.2 15.1 0 24-4.6 27.8-14.8h-14c-2 4.5-5.6 6.9-10.6 6.9-6.8 0-9.4-4.2-7.3-11.8 2.2-7.9 7.3-12.2 14.1-12.2 4.3-.1 6.3 1.8 6 5.6" fill="#005b76" fill-rule="evenodd"/><path clip-rule="evenodd" d="m206 300.3h14c1.9-9-4.1-13.6-17.8-13.6-15.9 0-26.6 7.6-30.3 20.7-3.3 11.9 3.2 19.2 18.1 19.2 15.1 0 24-4.6 27.8-14.8h-14c-2 4.5-5.6 6.9-10.6 6.9-6.8 0-9.4-4.2-7.3-11.8 2.2-7.9 7.3-12.2 14.1-12.2 4.3-.1 6.3 1.8 6 5.6" fill="#005b76" fill-rule="evenodd"/><path clip-rule="evenodd" d="m37 279c14-13.6 31-17.1 37.8-7.8s.8 27.9-13.2 41.4c-14 13.6-31 17.1-37.8 7.8-6.8-9.2-.9-27.8 13.2-41.4" fill="#f99d28" fill-rule="evenodd"/><path clip-rule="evenodd" d="m46.2 271.8c-1.5 1.1-3.1 2.4-4.6 3.9-12.3 11.8-17.4 28-11.3 36.1 6.2 8.1 21.4 5.2 33.9-6.8 6.7-6.4 11.3-13.8 13.1-20.7.6-5.1-.2-9.6-2.6-13-5.4-7.3-16.9-6.7-28.5.5" fill="#af2a30" fill-rule="evenodd"/><path clip-rule="evenodd" d="m53.2 319.3c-6.6 4.8-13.4 7.2-20 6.2 2.8.1 5-2.9 6.9-6.9 1.9-4.1 3-8 3.9-11.6 1.3-5.7 1.4-9.7.7-10.6-1.1-1.4-3.7-1.1-6.6.5-1.4.7-3.2.2-1-2.3 2.2-2.6 10.9-8.8 14.1-9.8 3.5-1 7.4.3 6.1 4-1 2.8-13.1 33.7-4.1 30.5m9.9-47.9c1.6 1.6.6 5.1-2.1 7.8-2.8 2.7-6.5 3.7-8.1 2.1-1.7-1.6-.7-5.1 2.1-7.9 2.8-2.7 6.5-3.6 8.1-2" fill="#fff" fill-rule="evenodd"/><path d="m70.7 351.2h3.9v10.7h4.9v3.2h-8.8z" fill="#fff"/><path d="m100 351.2h3.9v13.9h-3.9z" fill="#fff"/><path d="m126 351.2h8.7v3h-4.9v2.5h4.6v2.9h-4.6v5.5h-3.8z" fill="#fff"/><path d="m155.8 351.2h8.8v3h-5v2.5h4.7v2.9h-4.7v2.4h5v3.1h-8.8z" fill="#fff"/><path d="m212 351.2h3.9v13.9h-3.9z" fill="#fff"/><path d="m237.4 351.2h3.8l5.4 7.2c.1.2.6 1 1.3 2.5-.1-1.1-.2-2-.2-2.7v-6.9h3.7v13.9h-3.7l-5.4-7.2c-.1-.2-.6-1-1.3-2.4.1 1.1.2 2 .2 2.7v6.9h-3.8z" fill="#fff"/><path d="m276.9 362.5c1.1 0 1.8-.6 1.8-1.4 0-1.1-.8-1.4-2.4-1.8-2.6-.7-3.8-1.7-3.8-3.9 0-2.6 1.9-4.5 4.9-4.5 1.6 0 3 .4 4.2 1.2l-1.2 2.7c-.9-.7-1.9-1.1-2.7-1.1-1 0-1.6.5-1.6 1.2 0 1 1 1.2 2.3 1.5 2.5.7 3.9 1.6 3.9 4.1 0 2.9-2.1 4.9-5.5 4.9-2 0-3.5-.6-5.1-2l1.8-2.8c1.1 1.3 2.2 1.9 3.4 1.9" fill="#fff"/><path d="m306.6 351.2v7.6c0 2.5.5 3.5 2.5 3.5 2.4 0 2.5-1.4 2.5-4.4v-6.7h3.9v8.3c0 4.2-1.8 6-6.4 6-2.4 0-4.1-.5-5.1-1.7-1.1-1.3-1.2-2.9-1.2-5.1v-7.5z" fill="#fff"/><path d="m336.8 351.2h4.3c2 0 3.5 0 4.7.9 1 .8 1.6 2 1.6 3.4 0 2.2-1.1 3.5-3.2 4l3.9 5.6h-4.4l-3.3-5.5v5.5h-3.7v-13.9zm4.4 6.6c1.6 0 2.4-.5 2.4-1.7 0-1.5-.7-1.9-2.4-1.9h-.8v3.7h.8z" fill="#fff"/><path d="m372.1 351.2h4.9l4.9 13.9h-3.9l-.7-2.5h-5.5l-.7 2.5h-3.9zm4.4 8.7-1.5-4.6c-.1-.2-.2-.8-.5-1.9-.3 1-.4 1.7-.5 1.9l-1.4 4.6z" fill="#fff"/><path d="m401.7 351.2h3.8l5.4 7.2c.1.2.6 1 1.3 2.5-.1-1.1-.2-2-.2-2.7v-6.9h3.7v13.9h-3.7l-5.4-7.2c-.1-.2-.6-1-1.3-2.4.1 1.1.2 2 .2 2.7v6.9h-3.8z" fill="#fff"/><path d="m447.4 355.9c-1-1.1-2-1.7-3.3-1.7-2.3 0-3.8 1.7-3.8 4 0 2.1 1.5 3.9 3.8 3.9 1.3 0 2.3-.5 3.3-1.7v4.1c-1.2.6-2.4.9-3.7.9-4.2 0-7.3-3.1-7.3-7.3s3-7.3 7.3-7.3c1.3 0 2.5.3 3.7.9z" fill="#fff"/><path d="m468.4 351.2h8.8v3h-5v2.5h4.7v2.9h-4.7v2.4h5v3.1h-8.8z" fill="#fff"/></svg>